<svg width="24" height="24" viewBox="0 0 24 24" fill="none" xmlns="http://www.w3.org/2000/svg">
<g clip-path="url(#clip0_1286_509)">
<path d="M20.292 10.4H13.6V3.708C13.6 2.768 12.832 2 11.892 2H3.708C2.768 2 2 2.768 2 3.708V11.892C2 12.832 2.768 13.6 3.708 13.6H10.4V20.292C10.4 21.236 11.168 22 12.108 22H20.292C21.236 22 22 21.232 22 20.292V12.108C22 11.168 21.232 10.4 20.292 10.4ZM3.708 12.8C3.208 12.8 2.8 12.392 2.8 11.892V3.708C2.8 3.208 3.208 2.8 3.708 2.8H11.892C12.392 2.8 12.8 3.208 12.8 3.708V10.4H12.108C11.168 10.4 10.4 11.168 10.4 12.108V12.8H3.708ZM21.2 20.292C21.2 20.792 20.792 21.2 20.292 21.2H12.108C11.608 21.2 11.2 20.792 11.2 20.292V12.108C11.2 11.608 11.608 11.2 12.108 11.2H20.292C20.792 11.2 21.2 11.608 21.2 12.108V20.292Z" fill="black"/>
<path d="M5.33188 14.4C5.11188 14.4 4.93188 14.58 4.93188 14.8V17.14C4.93188 18.204 5.79588 19.068 6.85988 19.068H9.19988C9.41988 19.068 9.59988 18.888 9.59988 18.668C9.59988 18.448 9.41988 18.268 9.19988 18.268H6.85988C6.23588 18.268 5.73188 17.76 5.73188 17.14V14.8C5.73188 14.58 5.55188 14.4 5.33188 14.4Z" fill="black"/>
<path d="M18.6679 9.60001C18.8879 9.60001 19.0679 9.42001 19.0679 9.20001V6.86001C19.0679 5.79601 18.2039 4.93201 17.1399 4.93201H14.7999C14.5799 4.93201 14.3999 5.11201 14.3999 5.33201C14.3999 5.55201 14.5799 5.73201 14.7999 5.73201H17.1399C17.7639 5.73201 18.2679 6.24001 18.2679 6.86001V9.20001C18.2679 9.42001 18.4479 9.60001 18.6679 9.60001Z" fill="black"/>
<path d="M8.5 7.5H7.5C7.224 7.5 7 7.276 7 7C7 6.724 7.224 6.5 7.5 6.5H9.2C9.36569 6.5 9.5 6.36569 9.5 6.2V5.8C9.5 5.63431 9.36569 5.5 9.2 5.5H8.8C8.63431 5.5 8.5 5.36569 8.5 5.2V4.8C8.5 4.63431 8.36569 4.5 8.2 4.5H7.8C7.63431 4.5 7.5 4.63431 7.5 4.8V5.2C7.5 5.36569 7.36432 5.49687 7.20193 5.52975C6.51719 5.66839 6 6.27502 6 7C6 7.827 6.673 8.5 7.5 8.5H8.5C8.7755 8.5 9 8.724 9 9C9 9.276 8.7755 9.5 8.5 9.5H6.8C6.63431 9.5 6.5 9.63431 6.5 9.8V10.2C6.5 10.3657 6.63431 10.5 6.8 10.5H7.2C7.36569 10.5 7.5 10.6343 7.5 10.8V11.2C7.5 11.3657 7.63431 11.5 7.8 11.5H8.2C8.36569 11.5 8.5 11.3657 8.5 11.2V10.8C8.5 10.6343 8.63568 10.5031 8.79807 10.4702C9.48281 10.3316 10 9.72498 10 9C10 8.173 9.327 7.5 8.5 7.5Z" fill="black"/>
<path d="M14.2432 18.9529V13.273C14.2432 13.1719 14.3251 13.0899 14.4263 13.0899H16.5996C16.9983 13.0899 17.329 13.1312 17.5918 13.2139C17.8546 13.2966 18.082 13.4693 18.2739 13.7322C18.4659 13.995 18.5618 14.3035 18.5618 14.6579C18.5618 14.9916 18.4644 15.2817 18.2695 15.5283C18.0746 15.7748 17.8059 15.9321 17.4633 16C17.8886 16.0738 18.2104 16.2466 18.4289 16.5182C18.6475 16.7899 18.7567 17.1118 18.7567 17.4839C18.7567 17.9504 18.6039 18.3424 18.2983 18.6599C17.9927 18.9773 17.5224 19.136 16.8875 19.136H14.4263C14.3251 19.136 14.2432 19.054 14.2432 18.9529ZM15.2752 15.6279H16.604C16.8757 15.6279 17.0905 15.5467 17.2485 15.3843C17.4065 15.2219 17.4855 15.0152 17.4855 14.7642C17.4855 14.4866 17.3954 14.2821 17.2153 14.1507C17.0352 14.0193 16.824 13.9536 16.5819 13.9536H15.2752V15.6279ZM15.2752 18.228H16.6838C16.982 18.228 17.2175 18.1497 17.3903 17.9932C17.563 17.8367 17.6494 17.6256 17.6494 17.3598C17.6494 17.1059 17.5615 16.8977 17.3858 16.7353C17.2101 16.5729 16.9776 16.4917 16.6882 16.4917H15.2752V18.228Z" fill="black"/>
<path d="M15.35 12.2H14.8615C14.7824 12.2 14.7183 12.2641 14.7183 12.3432V13.2315H15.4932V12.3432C15.4932 12.2641 15.4291 12.2 15.35 12.2Z" fill="black"/>
<path d="M16.8299 12.2H16.3416C16.2624 12.2 16.1982 12.2642 16.1982 12.3433V13.2315H16.9732V12.3433C16.9732 12.2642 16.909 12.2 16.8299 12.2Z" fill="black"/>
<path d="M15.3499 19.8H14.8616C14.7824 19.8 14.7183 19.7358 14.7183 19.6567V18.7685H15.4932V19.6567C15.4932 19.7358 15.429 19.8 15.3499 19.8Z" fill="black"/>
<path d="M16.8299 19.8H16.3416C16.2624 19.8 16.1982 19.7358 16.1982 19.6567V18.7685H16.9732V19.6567C16.9732 19.7358 16.909 19.8 16.8299 19.8Z" fill="black"/>
</g>
<defs>
<clipPath id="clip0_1286_509">
<rect width="24" height="24" fill="white"/>
</clipPath>
</defs>
</svg>
