<svg width="256" height="256" viewBox="0 0 256 256" fill="none" xmlns="http://www.w3.org/2000/svg">
<path d="M194.962 20.6973C175.509 8.49063 152.517 1.40662 127.857 1.40662C103.196 1.40662 80.2048 8.49063 60.7539 20.6973C25.1175 43.0621 1.40674 82.6802 1.40674 127.857C1.40674 173.033 25.1175 212.651 60.7539 235.016C80.2048 247.223 103.196 254.307 127.857 254.307C152.517 254.307 175.509 247.223 194.962 235.016C230.599 212.651 254.307 173.033 254.307 127.857C254.307 82.6802 230.599 43.0621 194.962 20.6973Z" fill="#000099"/>
<path d="M226.207 124.316L215.444 124.232L212.353 114.2L208.925 124.428L198.444 124.26L207.099 130.667L203.699 140.586L212.466 134.32L220.868 140.642L217.608 130.357L226.207 124.316Z" fill="#FFCC00"/>
<path d="M192.318 98.1268L201.085 91.8886L209.487 98.183L206.228 87.8984L214.826 81.885L204.064 81.7726L200.973 71.769L197.573 81.9693L187.063 81.8007L195.718 88.2075L192.318 98.1268Z" fill="#FFCC00"/>
<path d="M170.766 41.1119L167.366 51.3403L156.884 51.1717L165.511 57.5504L162.139 67.4978L170.878 61.2315L179.28 67.5259L176.048 57.2694L184.619 51.2279L173.857 51.1436L170.766 41.1119Z" fill="#FFCC00"/>
<path d="M128.306 29.3099L124.906 39.5102L114.425 39.3416L123.08 45.7484L119.68 55.6677L128.419 49.4295L136.82 55.7239L133.589 45.4674L142.16 39.4259L131.425 39.3135L128.306 29.3099Z" fill="#FFCC00"/>
<path d="M86.2967 40.6904L82.8966 50.8907L72.3872 50.7221L81.042 57.1289L77.6419 67.0482L86.4091 60.81L94.811 67.1044L91.5795 56.8479L100.15 50.8064L89.3877 50.694L86.2967 40.6904Z" fill="#FFCC00"/>
<path d="M54.7967 71.3195L51.3685 81.5198L40.8872 81.3512L49.542 87.758L46.1419 97.7054L54.9091 91.4391L63.311 97.7335L60.0514 87.477L68.65 81.4355L57.8877 81.3512L54.7967 71.3195Z" fill="#FFCC00"/>
<path d="M43.5287 133.898L51.9306 140.193L48.671 129.936L57.2696 123.895L46.5073 123.81L43.4163 113.779L39.9881 123.979L29.5068 123.81L38.1616 130.217L34.7615 140.164L43.5287 133.898Z" fill="#FFCC00"/>
<path d="M57.8877 167.14L54.7967 157.109L51.3685 167.309L40.8872 167.14L49.542 173.547L46.1419 183.467L54.9091 177.228L63.311 183.523L60.0514 173.266L68.65 167.225L57.8877 167.14Z" fill="#FFCC00"/>
<path d="M88.5166 198.641L85.4256 188.609L81.9974 198.809L71.5161 198.669L80.1709 205.047L76.7708 214.995L85.538 208.728L93.9399 215.023L90.6803 204.766L99.2789 198.725L88.5166 198.641Z" fill="#FFCC00"/>
<path d="M130.976 210.021L127.885 199.989L124.457 210.218L113.976 210.049L122.63 216.456L119.23 226.375L127.997 220.109L136.399 226.403L133.14 216.147L141.738 210.105L130.976 210.021Z" fill="#FFCC00"/>
<path d="M173.435 198.641L170.344 188.609L166.916 198.809L156.435 198.669L165.089 205.047L161.689 214.995L170.456 208.728L178.858 215.023L175.599 204.766L184.197 198.725L173.435 198.641Z" fill="#FFCC00"/>
<path d="M204.935 167.14L201.844 157.109L198.444 167.309L187.935 167.14L196.589 173.547L193.189 183.467L201.956 177.228L210.358 183.523L207.127 173.266L215.697 167.225L204.935 167.14Z" fill="#FFCC00"/>
</svg>
