<svg width="24" height="24" viewBox="0 0 24 24" fill="none" xmlns="http://www.w3.org/2000/svg">
<g id="ideate/solid/save" clip-path="url(#clip0_1238_383)">
<path id="Vector 148" d="M21 14.9759V10.543C21 6.51579 21 4.50219 19.8063 3.25109C18.6126 2 16.6914 2 12.8491 2H11.1509C7.30855 2 5.38736 2 4.19368 3.25109C3 4.50219 3 6.51579 3 10.543V14.9759C3 18.4701 3 20.2172 3.66663 21.0208C4.2262 21.6953 5.05548 22.0553 5.90623 21.9931C6.91976 21.9189 8.09845 20.6835 10.4558 18.2127C11.0006 17.6417 11.273 17.3563 11.5878 17.2512C11.856 17.1617 12.144 17.1617 12.4122 17.2512C12.727 17.3563 12.9994 17.6417 13.5442 18.2127C15.9015 20.6835 17.0802 21.9189 18.0938 21.9931C18.9445 22.0553 19.7738 21.6953 20.3334 21.0208C21 20.2172 21 18.4701 21 14.9759Z" fill="#454CEE"/>
</g>
<defs>
<clipPath id="clip0_1238_383">
<rect width="24" height="24" fill="white"/>
</clipPath>
</defs>
</svg>
