<svg width="48" height="48" viewBox="0 0 48 48" fill="none" xmlns="http://www.w3.org/2000/svg">
<rect width="48" height="48" rx="24" fill="black"/>
<g clip-path="url(#clip0_11_517)">
<path fill-rule="evenodd" clip-rule="evenodd" d="M23.9958 12.6C21.1648 12.6015 18.4266 13.6042 16.2708 15.4288C14.1151 17.2534 12.6823 19.781 12.2288 22.5596C11.7753 25.3381 12.3306 28.1865 13.7953 30.5954C15.2601 33.0042 17.5388 34.8165 20.2241 35.7081C20.8165 35.818 21.0396 35.4509 21.0396 35.1387C21.0396 34.8265 21.0278 33.9213 21.0238 32.9317C17.7063 33.6484 17.0053 31.5318 17.0053 31.5318C16.4643 30.1574 15.6823 29.7961 15.6823 29.7961C14.6001 29.0617 15.7632 29.0755 15.7632 29.0755C16.9619 29.1599 17.5918 30.2987 17.5918 30.2987C18.6542 32.111 20.3821 31.5868 21.0614 31.2805C21.168 30.5127 21.478 29.9905 21.8196 29.694C19.1696 29.3955 16.3853 28.3785 16.3853 23.835C16.3688 22.6567 16.8086 21.5171 17.6135 20.6522C17.4911 20.3538 17.0823 19.1482 17.73 17.5106C17.73 17.5106 18.7312 17.1926 21.01 18.726C22.9646 18.1946 25.0269 18.1946 26.9815 18.726C29.2584 17.1926 30.2575 17.5106 30.2575 17.5106C30.9072 19.1443 30.4985 20.3498 30.376 20.6522C31.1835 21.5173 31.6242 22.6588 31.6063 23.8389C31.6063 28.3922 28.816 29.3955 26.162 29.6881C26.5886 30.0572 26.9697 30.7778 26.9697 31.8852C26.9697 33.4717 26.9558 34.748 26.9558 35.1387C26.9558 35.4548 27.1711 35.8239 27.7753 35.7081C30.4609 34.8164 32.7399 33.0038 34.2046 30.5945C35.6693 28.1852 36.2243 25.3364 35.7703 22.5576C35.3163 19.7788 33.8828 17.2512 31.7264 15.4269C29.5699 13.6026 26.8311 12.6005 23.9997 12.6H23.9958Z" fill="white"/>
<path d="M16.5864 29.6252C16.5608 29.6841 16.466 29.7018 16.389 29.6606C16.3119 29.6194 16.2547 29.5428 16.2823 29.4819C16.31 29.421 16.4028 29.4053 16.4798 29.4466C16.5568 29.4878 16.6161 29.5663 16.5864 29.6252Z" fill="white"/>
<path d="M17.0703 30.1613C17.0294 30.1818 16.9826 30.1875 16.9379 30.1774C16.8933 30.1674 16.8535 30.1423 16.8254 30.1063C16.7484 30.0238 16.7326 29.9099 16.7918 29.8589C16.8511 29.8078 16.9577 29.8314 17.0347 29.9139C17.1117 29.9963 17.1295 30.1102 17.0703 30.1613Z" fill="white"/>
<path d="M17.5402 30.8426C17.4671 30.8936 17.3427 30.8426 17.2736 30.7405C17.2545 30.7222 17.2393 30.7002 17.2289 30.6759C17.2185 30.6516 17.2131 30.6255 17.2131 30.5991C17.2131 30.5727 17.2185 30.5466 17.2289 30.5223C17.2393 30.498 17.2545 30.4761 17.2736 30.4578C17.3466 30.4087 17.471 30.4578 17.5402 30.5579C17.6093 30.658 17.6112 30.7915 17.5402 30.8426Z" fill="white"/>
<path d="M18.178 31.5023C18.1129 31.575 17.9806 31.5554 17.8719 31.4572C17.7633 31.359 17.7377 31.2255 17.8028 31.1548C17.868 31.0841 18.0003 31.1038 18.1129 31.2C18.2254 31.2962 18.2471 31.4317 18.178 31.5023Z" fill="white"/>
<path d="M19.0725 31.8872C19.0429 31.9794 18.9086 32.0207 18.7743 31.9814C18.6401 31.9421 18.5512 31.8322 18.5769 31.7379C18.6025 31.6437 18.7388 31.6005 18.875 31.6437C19.0113 31.6869 19.0982 31.791 19.0725 31.8872Z" fill="black"/>
<path d="M20.0481 31.9539C20.0481 32.0501 19.9375 32.1326 19.7954 32.1346C19.6532 32.1365 19.5367 32.058 19.5367 31.9618C19.5367 31.8656 19.6473 31.7831 19.7894 31.7811C19.9316 31.7792 20.0481 31.8557 20.0481 31.9539Z" fill="black"/>
<path d="M20.9564 31.8028C20.9742 31.899 20.8754 31.9991 20.7333 32.0227C20.5911 32.0462 20.4667 31.9893 20.4489 31.895C20.4311 31.8008 20.5338 31.6987 20.672 31.6732C20.8103 31.6476 20.9386 31.7065 20.9564 31.8028Z" fill="black"/>
</g>
<defs>
<clipPath id="clip0_11_517">
<rect width="24" height="24" fill="white" transform="translate(12 12)"/>
</clipPath>
</defs>
</svg>
