<svg width="256" height="256" viewBox="0 0 256 256" fill="none" xmlns="http://www.w3.org/2000/svg">
<path d="M8.63135 85.7066H247.085C229.731 36.6272 182.964 1.44877 127.952 1.40662H127.761C72.7499 1.44877 25.9803 36.6272 8.63135 85.7066Z" fill="#F3F4F5"/>
<path d="M247.082 170.007H8.63135C25.9943 219.114 72.8033 254.307 127.857 254.307C182.91 254.307 229.719 219.114 247.082 170.007Z" fill="#D52B1E"/>
<path d="M247.082 170.007C251.744 156.819 254.307 142.64 254.307 127.857C254.307 113.073 251.747 98.894 247.082 85.7067H8.63125C3.96665 98.894 1.40674 113.073 1.40674 127.857C1.40674 142.64 3.96946 156.822 8.63125 170.007H247.082Z" fill="#0039A6"/>
</svg>
