<svg width="24" height="24" viewBox="0 0 24 24" fill="none" xmlns="http://www.w3.org/2000/svg">
<g clip-path="url(#clip0_1284_501)">
<path d="M20.292 10.4H13.6V3.708C13.6 2.768 12.832 2 11.892 2H3.708C2.768 2 2 2.768 2 3.708V11.892C2 12.832 2.768 13.6 3.708 13.6H10.4V20.292C10.4 21.236 11.168 22 12.108 22H20.292C21.236 22 22 21.232 22 20.292V12.108C22 11.168 21.232 10.4 20.292 10.4ZM3.708 12.8C3.208 12.8 2.8 12.392 2.8 11.892V3.708C2.8 3.208 3.208 2.8 3.708 2.8H11.892C12.392 2.8 12.8 3.208 12.8 3.708V10.4H12.108C11.168 10.4 10.4 11.168 10.4 12.108V12.8H3.708ZM21.2 20.292C21.2 20.792 20.792 21.2 20.292 21.2H12.108C11.608 21.2 11.2 20.792 11.2 20.292V12.108C11.2 11.608 11.608 11.2 12.108 11.2H20.292C20.792 11.2 21.2 11.608 21.2 12.108V20.292Z" fill="black"/>
<path d="M10.0879 9.87601C9.39995 9.72801 8.81995 9.34001 8.34395 8.87601C8.96395 8.11201 9.34795 7.32801 9.52395 6.92801H10.6079C10.8279 6.92801 11.0079 6.74801 11.0079 6.52801C11.0079 6.30801 10.8279 6.12801 10.6079 6.12801H8.19995V5.33201C8.19995 5.11201 8.01995 4.93201 7.79995 4.93201C7.57995 4.93201 7.39995 5.11201 7.39995 5.33201V6.12801H4.99595C4.77595 6.12801 4.59595 6.30801 4.59595 6.52801C4.59595 6.74801 4.77595 6.92801 4.99595 6.92801H6.07995C6.25195 7.32401 6.63995 8.11201 7.25995 8.87601C6.78395 9.34001 6.19995 9.72801 5.51595 9.87601C5.29995 9.92401 5.16395 10.136 5.21195 10.352C5.25195 10.54 5.41995 10.668 5.60395 10.668C5.63195 10.668 5.65995 10.664 5.68795 10.66C6.53595 10.476 7.23595 10.016 7.80395 9.46801C8.37195 10.012 9.07195 10.472 9.91995 10.66C9.94795 10.668 9.97595 10.668 10.0039 10.668C10.1879 10.668 10.3519 10.54 10.3959 10.352C10.4399 10.136 10.3039 9.92401 10.0879 9.87601ZM8.63595 6.93201C8.45595 7.29201 8.17995 7.78401 7.79995 8.27201C7.41995 7.78401 7.14395 7.29201 6.96395 6.93201H8.63595Z" fill="black"/>
<path d="M16.568 13.248C16.504 13.1 16.36 13.004 16.2 13.004C16.04 13.004 15.892 13.1 15.832 13.248L14.212 17.124L13.496 18.84C13.412 19.044 13.508 19.276 13.712 19.364C13.916 19.448 14.148 19.352 14.236 19.148L14.852 17.68H17.564L18.18 19.148C18.244 19.3 18.392 19.392 18.548 19.392C18.6 19.392 18.652 19.384 18.704 19.36C18.908 19.276 19.004 19.04 18.92 18.836L16.568 13.248ZM15.18 16.884L16.2 14.44L17.22 16.884H15.18Z" fill="black"/>
<path d="M5.33188 14.4C5.11188 14.4 4.93188 14.58 4.93188 14.8V17.14C4.93188 18.204 5.79588 19.068 6.85988 19.068H9.19988C9.41988 19.068 9.59988 18.888 9.59988 18.668C9.59988 18.448 9.41988 18.268 9.19988 18.268H6.85988C6.23588 18.268 5.73188 17.76 5.73188 17.14V14.8C5.73188 14.58 5.55188 14.4 5.33188 14.4Z" fill="black"/>
<path d="M18.6679 9.60001C18.8879 9.60001 19.0679 9.42001 19.0679 9.20001V6.86001C19.0679 5.79601 18.2039 4.93201 17.1399 4.93201H14.7999C14.5799 4.93201 14.3999 5.11201 14.3999 5.33201C14.3999 5.55201 14.5799 5.73201 14.7999 5.73201H17.1399C17.7639 5.73201 18.2679 6.24001 18.2679 6.86001V9.20001C18.2679 9.42001 18.4479 9.60001 18.6679 9.60001Z" fill="black"/>
</g>
<defs>
<clipPath id="clip0_1284_501">
<rect width="24" height="24" fill="white"/>
</clipPath>
</defs>
</svg>
