<svg width="256" height="256" viewBox="0 0 256 256" fill="none" xmlns="http://www.w3.org/2000/svg">
<path d="M2.84277 146.948C5.43921 164.086 11.4863 180.086 20.2367 194.24H235.48C244.23 180.086 250.277 164.086 252.874 146.948H2.84277Z" fill="#F3F4F5"/>
<path d="M197.09 233.65H58.624C78.516 246.694 102.291 254.307 127.857 254.307C153.422 254.307 177.198 246.694 197.09 233.65Z" fill="#F3F4F5"/>
<path d="M20.2363 194.24C29.9926 210.024 43.1266 223.486 58.6237 233.65H197.089C212.589 223.486 225.72 210.024 235.477 194.24H20.2363Z" fill="#DC3027"/>
<path d="M140.864 2.06978C136.587 1.63142 132.249 1.40662 127.857 1.40662C58.0198 1.40662 1.40674 58.0197 1.40674 127.857C1.40674 134.345 1.89849 140.721 2.84265 146.948H140.864V2.06978Z" fill="#283991"/>
<path d="M39.8701 66.3008L35.9586 54.2909L46.1448 46.8865H33.5476L32.7805 44.5345C28.7847 49.0896 25.1148 53.9312 21.799 59.0285L19.4302 66.3008L29.6473 58.874L39.8701 66.3008Z" fill="#F3F4F5"/>
<path d="M65.3146 28.5456L75.4868 35.9387L71.5865 23.9625L81.7615 16.5272H69.1643L68.9789 15.954C65.0055 18.0502 61.1474 20.332 57.4382 22.8216L59.0343 23.9822L55.1958 35.9387L65.3146 28.5456Z" fill="#F3F4F5"/>
<path d="M23.3526 115.015L19.4467 127.014L29.647 119.595L39.8754 127.014L35.9695 115.015L46.1417 107.597H33.5529L29.647 95.626L25.7411 107.597H13.1523L23.3526 115.015Z" fill="#F3F4F5"/>
<path d="M94.7267 115.015L90.8208 127.014L101.021 119.595L111.249 127.014L107.344 115.015L117.516 107.597H104.927L101.021 95.626L97.1433 107.597H84.5264L94.7267 115.015Z" fill="#F3F4F5"/>
<path d="M94.7267 54.2908L90.8208 66.2895L101.021 58.8711L111.249 66.2895L107.344 54.2908L117.516 46.8724H104.927L101.021 34.9299L97.1433 46.8724H84.5264L94.7267 54.2908Z" fill="#F3F4F5"/>
<path d="M58.9554 84.6389L55.0495 96.6657L65.2779 89.2473L75.4782 96.6657L71.5723 84.6389L81.7726 77.2486H69.1557L65.2779 65.278L61.372 77.2486H48.7832L58.9554 84.6389Z" fill="#F3F4F5"/>
<path d="M252.66 107.535H140.864V146.945H252.871C253.815 140.721 254.307 134.345 254.307 127.857C254.307 120.936 253.728 114.155 252.66 107.535Z" fill="#DC3027"/>
<path d="M140.864 107.535H252.66C249.884 90.3628 243.643 74.3599 234.69 60.2424H140.864V107.535Z" fill="#F3F4F5"/>
<path d="M140.864 60.2424H234.687C224.608 44.349 211.092 30.8667 195.168 20.8322H140.864V60.2424Z" fill="#DC3027"/>
<path d="M140.864 2.08105V20.8322H195.17C179.134 10.7246 160.68 4.11268 140.864 2.08105Z" fill="#F3F4F5"/>
</svg>
